<?xml version="1.0" encoding="UTF-8"?>
<svg version="1.1" viewBox="0 0 3000 2000" xmlns="http://www.w3.org/2000/svg">
 <path d="m1429.4 1819.5c-53.013-80.759-129.77-216.96-95.085-216.96 8.1189 0 97.946 117.43 114.56 133.04 31.419 29.518 49.609 26.57 111.99-18.153 16.896-12.112 108.22-237.16 119.41-225.98 11.184 11.183-78.723 255.61-113.77 303.06-25.746 34.863-63.156 127.06-74.502 138.44 0 0-11.188-35.126-62.6-113.45zm-493.16-121.6c-8.6819-157.55 1.7778-315.48 28.873-310.33 17.56 3.338-14.381 41.039 8.9069 218.87 6.0882 46.489 41.41 78.376 51.857 82.385 20.976 8.0497 143.62-39.351 193.24-74.684 33.477-23.837 36.058-31.346 28.852-83.916-4.3542-31.755-0.9845-85.249 7.4821-118.88 8.4667-33.628 12.722-63.813 9.4556-67.08-3.2665-3.2696-30.601 10.38-60.742 30.327-87.527 57.921-175.1 58.054-324.16 0.4892-66.286-25.599-141.35-50.451-166.82-55.229-25.462-4.7779-70.561-2.7721-70.561-5.4229 0-2.6569 47.827-43.995 76.624-81.977 28.797-37.983 52.384-73.483 52.415-78.888 0.0753-5.4055 132.55-117.81 147.8-117.81 29.053 0-91.11 104.14-116.18 204.52-6.6475 26.613 0.39891 34.94 49.452 58.701 31.46 15.229 75.099 31.27 96.978 35.645 35.546 7.1096 43.477 2.3649 74.556-44.598 19.127-28.905 58.579-71.68 87.67-95.058 29.089-23.377 52.889-47.414 52.889-53.414 0-6.001-25.598-10.911-56.884-10.911-73.373 0-168.51-28.895-230.75-70.087-46.492-30.766-305.21-320.24-305.21-320.24 2.5169-2.5162 105.51-19.882 206.37-43.263 100.85-23.381 187.7-48.897 193-56.705 5.2949-7.806 9.7176-79.412 9.8282-159.12l-33.59-160.73 141.89 51.397c168.64 61.086 188.35 58.02 210.44 22.527 10.385-16.684 56.119-90.776 101.63-164.65 73.459-119.24 92.742-162.68 92.742-162.68 0 5.4053 49.448 109.94 96.147 185.61 46.701 75.674 89.766 145.92 95.703 156.1 9.1101 15.622 28.056 13.863 121.47-11.277 60.872-16.382 126.6-37.979 146.06-47.992 19.462-10.014 56.44-54.445 60.92-54.445 4.4791 0-12.689 67.196-16.903 105.03-4.2126 37.836-3.1649 109.63 2.3287 159.55l9.993 90.752 191.03 46.836 226.98 36.051-107.38 95.959c-224.47 200.6-274.66 287.68-425.28 298.53-48.648 3.5036-88.45 7.6892-88.45 9.2968 0 1.6077 44.406 48.054 98.68 103.22 108.79 110.57 113.06 111.69 220.43 57.874 43.288-21.694 87.716-66.49 82.532-96.569-28.084-164.04-114.71-186.47-87.704-214.26 29.453-30.305 91.164 67.54 119.9 177.56 5.2272 20.016 8.2491 55.791 28.07 78.534 19.819 22.742 63.942 54.095 63.875 60.351-0.1054 6.2554-70.782 17.395-122.97 34.077-52.183 16.681-124.36 41.496-160.4 55.146-100.42 38.036-180.75 33.632-266.2-14.594l-71.76-40.499 8.3153 50.327c4.5739 27.68 8.3794 86.096 8.4584 129.81 0.143 78.717 0.6397 79.763 51.329 108.25 28.153 15.823 76.158 37.579 106.68 48.348 74.064 26.132 112.89 14.848 110.15-76.636-1.9035-63.635-13.896-201.88 9.0657-201.88 22.76 0 26.334 9.0545 27.165 68.793 0.5269 37.838 22.507 185.46 8.849 265.19-7.6357 44.592 26.7 76.421 17.917 76.421-16.579 0-233.57-89.272-329.04-136.1-88.264-43.289-177.03-140.88-205.15-225.56-11.869-35.735-26.472-67.996-32.448-71.69-5.9776-3.6926-19.836 19.61-30.799 51.784-27.717 81.344-88.567 165.57-150.74 208.66-28.904 20.03-114.38 61.972-189.96 93.202-75.573 31.231-174.57 55.783-189.7 63.88 0 0 5.4635-46.592 4.7726-92.83zm461.67-266.77c23.686-39.146 52.285-102.72 63.553-141.28 11.176-38.246 6.2696-278.88 14.783-277.63 8.9295 1.3187 31.36 246.56 47.033 293.87 24.425 73.731 75.805 165.77 106.98 191.65 32.707 27.143 45.184-4.0651 45.418-113.6l0.2182-93.743 62.242 23.614c161.33 61.205 190.56 25.227 73.215-90.121-42.07-41.353-94.517-86.48-116.14-102.03l-220.24-110.17 259.89 79.845c85.62 26.305 224.25-29.109 246.87-52.06 21.003-21.316-16.708-47.467-108.8-75.444-39.904-12.123-91.905-44.085-94.984-46.335-13.381-9.78 187.92-111.72 212.37-111.34 24.243 0.3959 23.205 3.266-10.049 28.063-44.429 33.125-127.78 99.154-51.605 99.462 27.312 0.10763 73.243 12.231 102.07 26.935l52.405 26.736 38.976-27.755c44.094-31.397 130.35-139.31 130.35-163.08 0-44.588-208.8-84.385-327.21-62.365-97.367 18.108-206.87 66.706-278.98 123.82-52.506 41.586-181 184.63-171.97 152.88 5.0677-17.819 146.02-210.62 157.27-253.86 11.248-43.242 53.268-160.28 67.039-174.49 24.85-25.649 25.039-25.582 25.039 8.975 0 19.15-27.299 119.97-34.328 138.46-15.971 42.006 0.8294 43.902 53.937 6.0901 21.259-15.137 72.29-40.518 113.4-56.401 73.971-28.577 74.796-29.486 78.928-86.84 2.2956-31.878 0.5645-77.258-3.8724-100.84-7.224-38.505-12.615-42.882-52.822-42.882-59.443 0-174.28 43.946-240.85 92.169-29.536 21.397-72.908 68.272-96.38 104.17-23.472 35.896-46.617 65.371-51.435 65.501-4.817 0.10763-21.356-20.147-36.751-45.056-72.025-116.54-247.59-223.01-353.12-214.16-45.512 3.8194-47.229 5.9283-58.393 71.716-15.521 91.469-3.6798 132.75 41.185 143.55 36.054 8.6785 134.61 57.056 176.07 86.428 33.185 23.508 19.452-60.622 1.4172-120.81-8.861-29.575-11.709-58.159-6.3306-63.518 12.922-12.873 59.937 45.826 59.937 74.831 0 12.487 32.76 123.69 47.192 165.63 14.434 41.949 117.23 200.26 115.17 202.32-2.0653 2.0585-133.57-144.41-178.97-176-144.57-100.61-304.16-132.98-459.47-93.186-113.38 29.047-124.71 39.579-95.758 89.027 12.536 21.409 50.421 64.846 84.191 96.524l61.4 57.598 56.533-25.656c31.093-14.111 80.611-25.786 110.04-25.945 68.736-0.3959-7.7614-87.022-43.097-124.63l-28.612-30.456h27.598c23.221 0 180.62 150.45 165.66 159-2.5847 1.4852-37.136 13.595-76.775 26.921-79.743 26.806-104.83 42.766-104.83 66.686 0 22.948 95.006 48.601 214.56 57.934l267.64-77.293-244.31 147.26c-89.908 54.195-154.73 156.04-140.35 179.32 10.357 16.757 74.909 5.4726 148.15-25.901 30.629-13.12 56.422-19.764 57.317-14.764 0.8904 5.0007 0.4742 38.574-0.9581 74.609-2.9648 74.975 18.029 142.18 42.003 134.48 8.9642-2.8804 35.678-37.265 59.366-76.411zm122.01-834.46c14.604-34.233 45.284-81.663 68.176-105.4l41.622-43.158-43.144-83.215c-52.948-102.12-86.988-136.23-117.04-117.27-27.15 17.126-107.77 161.09-107.98 192.81-0.1054 13.167 17.024 41.121 38.023 62.12s48.336 64.771 60.747 97.27 24.924 59.088 27.804 59.088 17.187-28.009 31.792-62.242z"/>
</svg>
